<mxfile host="Electron" modified="2024-07-23T10:31:23.135Z" agent="Mozilla/5.0 (Macintosh; Intel Mac OS X 10_15_7) AppleWebKit/537.36 (KHTML, like Gecko) draw.io/24.6.4 Chrome/124.0.6367.207 Electron/30.0.6 Safari/537.36" etag="qjUVCWmI-bIhoP92iq2W" version="24.6.4" type="device">
  <diagram name="페이지-1" id="69LMEeGLx5pnYbbi9eR1">
    <mxGraphModel dx="1114" dy="894" grid="1" gridSize="10" guides="1" tooltips="1" connect="1" arrows="1" fold="1" page="1" pageScale="1" pageWidth="827" pageHeight="1169" math="0" shadow="0">
      <root>
        <mxCell id="0" />
        <mxCell id="1" parent="0" />
        <mxCell id="5-9QLLotU0kyh7GOgBmR-2" value="Controller" style="rounded=0;whiteSpace=wrap;html=1;" vertex="1" parent="1">
          <mxGeometry x="90" y="100" width="300" height="30" as="geometry" />
        </mxCell>
        <mxCell id="5-9QLLotU0kyh7GOgBmR-3" value="Command" style="rounded=1;whiteSpace=wrap;html=1;verticalAlign=top;fontStyle=1;fillColor=#fff2cc;strokeColor=#d6b656;" vertex="1" parent="1">
          <mxGeometry x="80" y="148.5" width="140" height="201.5" as="geometry" />
        </mxCell>
        <mxCell id="5-9QLLotU0kyh7GOgBmR-4" value="DBMS" style="rounded=0;whiteSpace=wrap;html=1;" vertex="1" parent="1">
          <mxGeometry x="80" y="380" width="300" height="30" as="geometry" />
        </mxCell>
        <mxCell id="5-9QLLotU0kyh7GOgBmR-5" value="응용 서비스" style="rounded=0;whiteSpace=wrap;html=1;" vertex="1" parent="1">
          <mxGeometry x="90" y="187" width="120" height="30" as="geometry" />
        </mxCell>
        <mxCell id="5-9QLLotU0kyh7GOgBmR-6" value="인프라스트럭처&lt;div&gt;(JPA Repository 구현)&lt;/div&gt;" style="rounded=0;whiteSpace=wrap;html=1;" vertex="1" parent="1">
          <mxGeometry x="90" y="287" width="120" height="43" as="geometry" />
        </mxCell>
        <mxCell id="5-9QLLotU0kyh7GOgBmR-7" value="도메인" style="rounded=0;whiteSpace=wrap;html=1;" vertex="1" parent="1">
          <mxGeometry x="90" y="237" width="120" height="30" as="geometry" />
        </mxCell>
        <mxCell id="5-9QLLotU0kyh7GOgBmR-8" value="Query" style="rounded=1;whiteSpace=wrap;html=1;verticalAlign=top;fontStyle=1;fillColor=#fff2cc;strokeColor=#d6b656;" vertex="1" parent="1">
          <mxGeometry x="260" y="148.5" width="150" height="182.5" as="geometry" />
        </mxCell>
        <mxCell id="5-9QLLotU0kyh7GOgBmR-9" value="DTO/DAO" style="rounded=0;whiteSpace=wrap;html=1;" vertex="1" parent="1">
          <mxGeometry x="270" y="188" width="130" height="30" as="geometry" />
        </mxCell>
        <mxCell id="5-9QLLotU0kyh7GOgBmR-10" value="&lt;div&gt;인프라&lt;/div&gt;&lt;div&gt;(MyBatis 로 DAO 구현)&lt;/div&gt;" style="rounded=0;whiteSpace=wrap;html=1;" vertex="1" parent="1">
          <mxGeometry x="270" y="238" width="130" height="52" as="geometry" />
        </mxCell>
      </root>
    </mxGraphModel>
  </diagram>
</mxfile>
